<?xml version="1.0" encoding="iso-8859-1"?>
<!-- Generator: Adobe Illustrator 19.0.0, SVG Export Plug-In . SVG Version: 6.00 Build 0)  -->
<svg version="1.1" id="Layer_1" xmlns="http://www.w3.org/2000/svg" xmlns:xlink="http://www.w3.org/1999/xlink" x="0px" y="0px"
	 viewBox="0 0 512 512" style="enable-background:new 0 0 512 512;" xml:space="preserve">
<g>
	<g>
		<path d="M484.862,230.578l-73.353-73.303c7.464-9.988,11.503-22.057,11.503-34.745c0-32.107-26.132-58.227-58.253-58.227
			c-12.695,0-24.77,4.038-34.765,11.501L256.649,2.484c-2.953-2.953-7.619-3.316-10.995-0.855l-61.342,44.734
			c-2.003,1.461-3.268,3.725-3.46,6.197c-0.192,2.473,0.707,4.904,2.461,6.656l24.069,24.056L34.114,344.234
			c-2.226,3.352-1.791,7.807,1.043,10.665l14.919,15.049l-22.94,22.94c-3.313,3.313-3.313,8.683,0,11.996l56.983,56.983
			c1.656,1.657,3.828,2.485,5.998,2.485s4.342-0.828,5.998-2.485l22.642-22.641l12.919,13.031c1.642,1.656,3.825,2.511,6.027,2.511
			c1.622,0,3.253-0.464,4.684-1.413l29.325-19.439l63.77,75.089c1.654,1.947,4.038,2.993,6.47,2.993c1.258,0,2.528-0.281,3.717-0.86
			l51.399-25.079c2.143-1.046,3.747-2.946,4.42-5.236c0.672-2.289,0.348-4.755-0.89-6.793l-14.779-24.329l27.324-27.298
			c2.612-2.609,3.236-6.608,1.544-9.889l-28.213-54.713l117.563-77.975l24.074,24.061c1.597,1.596,3.756,2.484,5.996,2.483
			c0.218,0,0.438-0.008,0.658-0.025c2.47-0.192,4.734-1.455,6.195-3.455l44.758-61.311
			C488.183,238.203,487.82,233.534,484.862,230.578z M364.758,81.268c22.766,0,41.287,18.51,41.287,41.261
			c0,8.136-2.349,15.91-6.715,22.561l-57.144-57.113C348.841,83.615,356.619,81.268,364.758,81.268z M90.118,443.873l-44.986-44.986
			l16.89-16.89l44.791,45.182L90.118,443.873z M244.149,493.004l-58.198-68.529l46.115-30.586l49.202,81.004L244.149,493.004z
			 M296.768,414.782l-20.014,19.995l-30.538-50.274l26.034-17.267L296.768,414.782z M270.764,347.869l-131.945,87.496l-86.75-87.504
			L219.622,95.507l172.172,172.082L270.764,347.869z M433.098,284.884L202.32,54.227l47.466-34.614l217.945,217.83L433.098,284.884z
			"/>
	</g>
</g>
<g>
</g>
<g>
</g>
<g>
</g>
<g>
</g>
<g>
</g>
<g>
</g>
<g>
</g>
<g>
</g>
<g>
</g>
<g>
</g>
<g>
</g>
<g>
</g>
<g>
</g>
<g>
</g>
<g>
</g>
</svg>
