<?xml version="1.0" encoding="iso-8859-1"?>
<!-- Generator: Adobe Illustrator 19.1.0, SVG Export Plug-In . SVG Version: 6.00 Build 0)  -->
<svg version="1.1" id="Capa_1" xmlns="http://www.w3.org/2000/svg" xmlns:xlink="http://www.w3.org/1999/xlink" x="0px" y="0px"
	 viewBox="0 0 487.544 487.544" style="enable-background:new 0 0 487.544 487.544;" xml:space="preserve">
<g>
	<g>
		<path d="M243.544,321.385L243.544,321.385c0.1,0,0.2,0,0.4,0c0.1,0,0.2,0,0.4,0l0,0c63.9-0.7,54.7-86.1,54.7-86.1
			c-2.6-57-50.3-56.6-55-56.4c-4.7-0.2-52.4-0.7-55,56.4C188.844,235.385,179.544,320.785,243.544,321.385z"/>
		<path d="M393.444,350.585c0.1,0,0.2,0,0.3,0l0,0c51.4-0.5,44-69.2,44-69.2c-2.1-45.9-40.5-45.5-44.3-45.3
			c-3.8-0.2-42.2-0.5-44.3,45.3c0,0-7.5,68.7,44,69.2l0,0C393.244,350.585,393.344,350.585,393.444,350.585z"/>
		<path d="M487.544,421.385v-1.1c0-0.1,0-0.1,0-0.2c-0.4-14.8-3.2-25.1-18.4-34.6c-20.1-12.6-42.5-23.5-42.5-23.5l-17.9,56.6
			l-10.4-29.6c18.3-25.5-1.3-26.8-4.8-26.8l0,0h-0.1h-0.1l0,0c-3.5,0-23.1,1.3-4.8,26.8l-10.4,29.6l-17.8-56.4c0,0-6.4,3.1-15.4,7.9
			c-2.1-1.7-4.4-3.4-7-5c-24.9-15.7-52.8-29.2-52.8-29.2l-22.2,70.2l-13-36.8c22.8-31.8-1.6-33.3-5.9-33.4l0,0h-0.1h-0.1l0,0
			c-4.3,0-28.7,1.6-5.9,33.4l-13,36.8l-22.2-70.2c0,0-27.9,13.5-52.8,29.2c-2.7,1.7-5,3.4-7.1,5.1c-9.1-4.9-15.6-8-15.6-8
			l-17.8,56.4l-10.4-29.6c18.3-25.5-1.3-26.8-4.8-26.8l0,0h-0.1h-0.1l0,0c-3.5,0-23.1,1.3-4.8,26.8l-10.5,29.6l-17.8-56.4
			c0,0-22.4,10.9-42.5,23.5c-15.1,9.5-17.9,19.7-18.4,34.6c0,0.1,0,0.1,0,0.2v1.1c-0.1,2.8,0,5.9,0,9.1c0,0,0-0.4,0-1.1v40.8h94.1
			h32.8h61.1h55.7h55.7h61.4h32.5h94.1v-40.8c0,0.7,0,1.1,0,1.1C487.544,427.285,487.544,424.285,487.544,421.385z"/>
		<path d="M93.744,350.585L93.744,350.585c0.1,0,0.2,0,0.3,0c0.1,0,0.2,0,0.3,0l0,0c51.4-0.5,44-69.2,44-69.2
			c-2.1-45.9-40.5-45.5-44.3-45.3c-3.8-0.2-42.2-0.5-44.3,45.3C49.744,281.385,42.344,349.985,93.744,350.585z"/>
		<path d="M334.544,163.985c-3.3,7.2-9,16-18.1,20.5c-3,1.5-2.3,5.9,1,6.4c9.9,1.5,24.1-0.2,37.4-10.2l0.2,0.2
			c33.7,19.8,77.7,15.3,106.6-13.7c34.3-34.3,34.3-90,0-124.3s-90-34.3-124.3,0c-33,33-34.3,85.8-3.7,120.3L334.544,163.985z
			 M370.944,137.285c0.7-2.7,1.5-5.4,2.3-8c1-3.1,1.8-3.5,4.6-2c4.8,2.5,10,3.9,15.4,4.6c3.5,0.4,6.9,0.1,10.1-1.3
			c6-2.6,6.9-9.6,1.9-13.7c-1.7-1.4-3.7-2.5-5.7-3.4c-5.3-2.3-10.7-4.1-15.7-7.1c-8.1-4.8-13.2-11.4-12.6-21.3
			c0.7-11.1,6.9-18,17.1-21.7c4.2-1.5,4.2-1.5,4.2-5.8c0-1.5,0-3,0-4.4c0.1-3.3,0.6-3.9,3.9-4c1,0,2,0,3.1,0c7,0,7,0,7,7
			c0,5,0,5,5,5.7c3.8,0.6,7.4,1.7,10.9,3.2c1.9,0.9,2.7,2.2,2.1,4.2c-0.9,3-1.7,6.1-2.7,9.1c-0.9,2.8-1.8,3.2-4.5,1.9
			c-5.5-2.6-11.2-3.7-17.3-3.4c-1.6,0.1-3.1,0.3-4.6,0.9c-5.2,2.3-6.1,8-1.6,11.6c2.2,1.8,4.8,3.1,7.5,4.2c4.6,1.9,9.3,3.8,13.7,6.2
			c14,7.7,17.8,25.3,7.9,37.3c-3.6,4.3-8.2,7.2-13.6,8.7c-2.4,0.6-3.4,1.9-3.3,4.3c0.1,2.4,0,4.8,0,7.2c0,2.2-1.1,3.3-3.2,3.4
			c-2.6,0.1-5.2,0.1-7.8,0c-2.3,0-3.3-1.3-3.4-3.5c0-1.8,0-3.5,0-5.3c0-3.9-0.2-4-3.9-4.6c-4.8-0.8-9.5-1.8-13.8-4
			C370.344,141.785,370.044,140.985,370.944,137.285z"/>
	</g>
</g>
<g>
</g>
<g>
</g>
<g>
</g>
<g>
</g>
<g>
</g>
<g>
</g>
<g>
</g>
<g>
</g>
<g>
</g>
<g>
</g>
<g>
</g>
<g>
</g>
<g>
</g>
<g>
</g>
<g>
</g>
</svg>
