<?xml version="1.0" encoding="iso-8859-1"?>
<!-- Generator: Adobe Illustrator 18.0.0, SVG Export Plug-In . SVG Version: 6.00 Build 0)  -->
<!DOCTYPE svg PUBLIC "-//W3C//DTD SVG 1.1//EN" "http://www.w3.org/Graphics/SVG/1.1/DTD/svg11.dtd">
<svg version="1.1" id="Capa_1" xmlns="http://www.w3.org/2000/svg" xmlns:xlink="http://www.w3.org/1999/xlink" x="0px" y="0px"
	 viewBox="0 0 297 297" style="enable-background:new 0 0 297 297;" xml:space="preserve">
<g>
	<path d="M50.169,100.819l-21.624,19.44v56.482l21.624,19.44h196.663l21.623-19.44v-56.482l-21.623-19.44H50.169z M82.248,156.531
		H49.123c-4.435,0-8.031-3.596-8.031-8.03c0-4.435,3.596-8.03,8.031-8.03h33.126c4.435,0,8.03,3.596,8.03,8.03
		C90.279,152.935,86.683,156.531,82.248,156.531z M148.5,181.626c-18.295,0-33.126-14.831-33.126-33.126
		c0-18.295,14.831-33.126,33.126-33.126s33.126,14.831,33.126,33.126C181.626,166.795,166.795,181.626,148.5,181.626z
		 M255.907,148.5c0,4.435-3.596,8.03-8.03,8.03h-33.126c-4.435,0-8.03-3.596-8.03-8.03c0-4.435,3.596-8.03,8.03-8.03h33.126
		C252.311,140.47,255.907,144.065,255.907,148.5z"/>
	<path d="M286.441,71.541H53.99c4.855-16.148,19.817-27.945,37.48-27.945h62.144l-6.336,5.367c-4.23,3.584-4.754,9.917-1.171,14.148
		c1.986,2.344,4.816,3.55,7.665,3.55c2.292,0,4.598-0.781,6.484-2.378l27.229-23.065c2.238-1.897,3.535-4.678,3.55-7.612
		c0.014-2.934-1.256-5.727-3.476-7.644l-27.229-23.52c-4.199-3.626-10.535-3.16-14.158,1.034
		c-3.624,4.196-3.161,10.535,1.034,14.158l6.814,5.886H91.47c-28.793,0-52.84,20.698-58.127,48.021H10.559
		c-5.543,0-10.038,4.495-10.038,10.038v133.841c0,5.544,4.495,10.038,10.038,10.038h232.45
		c-4.855,16.148-19.816,27.945-37.48,27.945h-62.144l6.336-5.367c4.23-3.584,4.754-9.917,1.172-14.148
		c-3.584-4.229-9.918-4.752-14.148-1.171l-27.229,23.065c-2.238,1.897-3.535,4.678-3.55,7.612c-0.014,2.934,1.256,5.727,3.476,7.644
		l27.229,23.52c1.898,1.639,4.233,2.442,6.557,2.442c2.816,0,5.616-1.178,7.601-3.476c3.624-4.196,3.161-10.535-1.034-14.158
		l-6.814-5.886h62.548c28.793,0,52.84-20.699,58.127-48.021h22.784c5.543,0,10.038-4.495,10.038-10.038V81.579
		C296.479,76.036,291.984,71.541,286.441,71.541z M284.515,180.32c0,2.278-0.967,4.449-2.661,5.972l-26.574,23.891
		c-1.474,1.325-3.387,2.059-5.369,2.059H47.09c-1.982,0-3.895-0.733-5.369-2.059l-26.575-23.891
		c-1.694-1.523-2.661-3.694-2.661-5.972v-63.64c0-2.278,0.968-4.449,2.661-5.972l26.575-23.891c1.474-1.325,3.387-2.059,5.369-2.059
		H249.91c1.982,0,3.895,0.733,5.369,2.059l26.574,23.891c1.694,1.523,2.661,3.694,2.661,5.972V180.32z"/>
</g>
<g>
</g>
<g>
</g>
<g>
</g>
<g>
</g>
<g>
</g>
<g>
</g>
<g>
</g>
<g>
</g>
<g>
</g>
<g>
</g>
<g>
</g>
<g>
</g>
<g>
</g>
<g>
</g>
<g>
</g>
</svg>
