<svg width="128" height="128" xmlns:dc="http://purl.org/dc/elements/1.1/" xmlns:cc="http://creativecommons.org/ns#" xmlns:rdf="http://www.w3.org/1999/02/22-rdf-syntax-ns#" xmlns:svg="http://www.w3.org/2000/svg" xmlns="http://www.w3.org/2000/svg" xmlns:sodipodi="http://sodipodi.sourceforge.net/DTD/sodipodi-0.dtd" xmlns:inkscape="http://www.inkscape.org/namespaces/inkscape" viewBox="0 0 8.4666665 10.58333375" version="1.1" x="0px" y="0px"><g transform="translate(0,-288.53332)"><path style="" d="m 4.2333334,289.16481 -3.70416673,2.64583 v 4.66018 H 7.9375001 v -4.66018 l -0.3059112,-0.21859 -0.2537355,0.14366 0.1467644,0.10491 h -0.331761 l -0.4666457,0.26458 h 0.7984067 l -2.7357652,1.9544 -0.5555192,-0.39687 -0.5555192,0.39687 -0.1762125,-0.12609 -0.2537354,0.14366 0.202565,0.1447 -2.65668133,1.89755 v -3.79511 L 2.5838151,293.6033 2.2737763,293.05656 0.94207537,292.1052 H 1.7347936 L 1.5844044,291.84062 H 0.94207537 l 3.29125803,-2.35077 0.2960952,0.21136 0.2537354,-0.14418 z m 3.4395834,3.1595 v 3.79511 l -2.6561786,-1.89755 z m -3.4395834,1.66346 3.1062613,2.21847 H 1.1270721 Z" fill="#000000" stroke="none"/><path style="" d="m 6.1918851,289.06249 -4.4483073,2.52181 1.3048191,2.30167 4.4483074,-2.52181 z m -0.099748,0.3607 1.0443898,1.84123 -3.9884086,2.26136 -1.0438606,-1.84175 z" fill="#000000" stroke="none"/><path style="" d="m 4.5966328,290.62208 a 0.85136094,0.85136094 0 0 0 -0.8278813,0.85215 0.85137626,0.85137626 0 1 0 1.7027525,0 0.85136094,0.85136094 0 0 0 -0.8748712,-0.85215 z m 0.038232,0.24443 A 0.6081149,0.6081149 0 0 1 5.01986,291.9326 l -0.035137,-0.062 a 0.33446323,0.33446323 0 0 0 -0.4242858,-0.50178 0.09121727,0.09121727 0 1 1 0.011377,-0.1509 l 0.1508918,-0.1912 a 0.33446323,0.33446323 0 0 0 -0.25527,-0.0687 l -0.035137,-0.062 a 0.6081149,0.6081149 0 0 1 0.202565,-0.0295 z m -0.4144434,0.14935 0.035137,0.0625 v 0 a 0.33446323,0.33446323 0 0 0 0.4242858,0.50177 0.09121727,0.09121727 0 1 1 -0.011906,0.1509 l -0.1508919,0.19069 a 0.33446323,0.33446323 0 0 0 0.2557992,0.0687 l 0.035137,0.062 a 0.6081149,0.6081149 0 0 1 -0.588063,-1.03663 z" fill="#000000" stroke="none"/></g></svg>